<?xml version="1.0" encoding="UTF-8" standalone="no"?>
<svg
   xmlns:dc="http://purl.org/dc/elements/1.1/"
   xmlns:cc="http://creativecommons.org/ns#"
   xmlns:rdf="http://www.w3.org/1999/02/22-rdf-syntax-ns#"
   xmlns:svg="http://www.w3.org/2000/svg"
   xmlns="http://www.w3.org/2000/svg"
   xmlns:sodipodi="http://sodipodi.sourceforge.net/DTD/sodipodi-0.dtd"
   xmlns:inkscape="http://www.inkscape.org/namespaces/inkscape"
   viewBox="64.048 -1062.413 193.4 114.42"
   focusable="false"
   class=""
   role="presentation"
   id="FxSymbol0-0bf"
   version="1.1"
   sodipodi:docname="cognitive2.svg"
   inkscape:version="0.92.2 (5c3e80d, 2017-08-06)">
  <metadata
     id="metadata3753">
    <rdf:RDF>
      <cc:Work
         rdf:about="">
        <dc:format>image/svg+xml</dc:format>
        <dc:type
           rdf:resource="http://purl.org/dc/dcmitype/StillImage" />
        <dc:title></dc:title>
      </cc:Work>
    </rdf:RDF>
  </metadata>
  <defs
     id="defs3751" />
  <sodipodi:namedview
     pagecolor="#ffffff"
     bordercolor="#666666"
     borderopacity="1"
     objecttolerance="10"
     gridtolerance="10"
     guidetolerance="10"
     inkscape:pageopacity="0"
     inkscape:pageshadow="2"
     inkscape:window-width="1938"
     inkscape:window-height="845"
     id="namedview3749"
     showgrid="false"
     inkscape:zoom="2.0625765"
     inkscape:cx="96.699997"
     inkscape:cy="57.209999"
     inkscape:window-x="0"
     inkscape:window-y="0"
     inkscape:window-maximized="0"
     inkscape:current-layer="FxSymbol0-0bf" />
  <style
     type="text/css"
     id="style3738"><![CDATA[
.msportalfx-svg-c01{fill:#fff}
.msportalfx-svg-c02{fill:#e5e5e5}
.msportalfx-svg-c03{fill:#a0a1a2}
.msportalfx-svg-c04{fill:#7a7a7a}
.msportalfx-svg-c05{fill:#3e3e3e}
.msportalfx-svg-c06{fill:#1e1e1e}
.msportalfx-svg-c07{fill:#0f0f0f}
.msportalfx-svg-c08{fill:#ba141a}
.msportalfx-svg-c09{fill:#dd5900}
.msportalfx-svg-c10{fill:#ff8c00}
.msportalfx-svg-c11{fill:#fcd116}
.msportalfx-svg-c12{fill:#fee087}
.msportalfx-svg-c13{fill:#b8d432}
.msportalfx-svg-c14{fill:#7fba00}
.msportalfx-svg-c15{fill:#59b4d9}
.msportalfx-svg-c16{fill:#3999c6}
.msportalfx-svg-c17{fill:#804998}
.msportalfx-svg-c18{fill:#ec008c}
.msportalfx-svg-c19{fill:#0072c6}
.msportalfx-svg-c20{fill:#68217a}
.msportalfx-svg-c21{fill:#00188f}
.msportalfx-svg-c22{fill:#e81123}
.msportalfx-svg-c97{fill:#ffb900}
.msportalfx-svg-c98{fill:#00a4ef}
.msportalfx-svg-c99{fill:#f25022}
.fxs-blade-header-icon .msportalfx-svg-c05,.fxs-sidebar-middle .msportalfx-svg-c05,.fxs-theme-dark .msportalfx-svg-c05,.msportalfx-inverted-theme .msportalfx-svg-c05{fill:#777}
.fxs-blade-header-icon .msportalfx-svg-c07,.fxs-sidebar-middle .msportalfx-svg-c07,.fxs-theme-dark .msportalfx-svg-c07,.msportalfx-inverted-theme .msportalfx-svg-c07{fill:#f2f2f2}
.msportalfx-svg-palette-white>*,.msportalfx-svg-palette-white>g>*{fill:#fff}
.msportalfx-svg-palette-blue>*,.msportalfx-svg-palette-blue>g>*{fill:#3999c6}
.msportalfx-svg-palette-black>*,.msportalfx-svg-palette-black>g>*{fill:#1e1e1e}
.msportalfx-svg-palette-green>*,.msportalfx-svg-palette-green>g>*{fill:#7fba00}
.msportalfx-svg-palette-gray>*,.msportalfx-svg-palette-gray>g>*{fill:#a0a1a2}
.msportalfx-svg-palette-inherit>*,.msportalfx-svg-palette-inherit>g *{fill:inherit!important}
.msportalfx-svg-badge{position:absolute;left:0;bottom:0;min-height:12px;min-width:12px}
.ext-fxc-menu-icon>.msportalfx-svg-badge{left:8px;bottom:7px;min-height:8px;min-width:8px}
.msportalfx-svg-disabled{filter:grayscale(100%)}
.msportalfx-svg-loading-square{-webkit-animation:ProgressFlagAnimation 1.45s infinite ease-in-out;animation:ProgressFlagAnimation 1.45s infinite ease-in-out}
.msportalfx-svg-loading-square:nth-child(1){-webkit-animation-delay:0s;animation-delay:0s}
.msportalfx-svg-loading-square:nth-child(2){-webkit-animation-delay:.2s;animation-delay:.2s}
.msportalfx-svg-loading-square:nth-child(3){-webkit-animation-delay:.4s;animation-delay:.4s}
]]></style>
  <g
     id="g3746">
    <title
       id="title3740" />
    <path
       d="M254.908-1005.695c-3.504-8.302-10.753-15.332-20.133-19.63-4.324-14.539-16.426-29.079-34.475-29.079-.575 0-1.156.015-1.741.044-7.528-5.398-14.84-8.029-22.287-8.029-4.489 0-9.076.991-13.674 2.952-3.405-1.785-7.312-2.715-11.487-2.715-9.237 0-17.998 4.266-23.406 9.264a23.086 23.086 0 0 0-5.304-.604c-13.779 0-27.433 11.384-31.124 25.186-11.877 4.309-20.551 12.139-24.624 22.323-3.952 9.882-3.083 20.93 2.384 30.313 5.43 9.319 14.928 14.883 25.408 14.883 4.021 0 7.896-.821 11.431-2.402 6.372 5.793 14.571 9.256 22.334 9.256 2.707 0 5.299-.4 7.749-1.193 6.286 5.17 15.922 7.109 23.74 7.109 9.226 0 17.242-2.437 22.557-6.693 3.444 1.594 7.237 2.421 11.194 2.42h.003c9.899 0 20.127-5.274 25.713-12.607 3.116 1.277 6.396 1.938 9.712 1.938h.003c10.816-.002 20.86-7.063 25.589-17.989 3.604-8.33 3.756-16.886.438-24.747z"
       fill="#3176BC"
       id="path3742" />
    <path
       class="msportalfx-svg-c01"
       d="M118.612-995.661h-9.739c-1.215-5.369-6.015-9.394-11.744-9.394-6.644 0-12.049 5.406-12.049 12.05 0 6.645 5.405 12.051 12.049 12.051 5.696 0 10.471-3.979 11.72-9.3h9.764a2.245 2.245 0 0 1 2.242 2.242v33.091a29.66 29.66 0 0 0 5.408.906v-33.997c0-4.217-3.432-7.649-7.651-7.649zm-21.483 9.708c-3.887 0-7.049-3.163-7.049-7.051 0-3.888 3.162-7.05 7.049-7.05s7.049 3.163 7.049 7.05c0 3.888-3.162 7.051-7.049 7.051zm60.294-7.315v-11.256c0-4.218-3.432-7.648-7.648-7.648H132.66a2.245 2.245 0 0 1-2.242-2.243v-40.697a31.657 31.657 0 0 0-2.712 2.223 22.18 22.18 0 0 0-2.696-.46v38.934c0 4.219 3.432 7.651 7.65 7.651h17.115a2.243 2.243 0 0 1 2.24 2.24v11.256c-5.344 1.232-9.344 6.02-9.344 11.733 0 6.644 5.404 12.05 12.048 12.05s12.049-5.406 12.049-12.05c0-5.713-4.001-10.501-9.345-11.733zm-2.704 18.784c-3.886 0-7.048-3.163-7.048-7.05 0-3.888 3.162-7.051 7.048-7.051 3.887 0 7.049 3.163 7.049 7.051 0 3.887-3.163 7.05-7.049 7.05zm76.442-30.02c0-6.644-5.404-12.049-12.047-12.049-6.644 0-12.049 5.405-12.049 12.049 0 5.696 3.978 10.47 9.297 11.72v2.231a2.243 2.243 0 0 1-2.24 2.242h-21.668v-38.774c0-4.218-3.431-7.65-7.649-7.65h-11.743c-1.215-5.368-6.014-9.392-11.743-9.392-6.644 0-12.049 5.406-12.049 12.05 0 6.644 5.405 12.048 12.049 12.048 5.696 0 10.471-3.978 11.72-9.298h11.767a2.243 2.243 0 0 1 2.241 2.242v74.031c1.75.423 3.559.672 5.408.737v-30.585h21.668c4.219 0 7.65-3.432 7.65-7.65v-2.207c5.366-1.216 9.388-6.015 9.388-11.745zm-69.843-20.525c-3.887 0-7.049-3.162-7.049-7.048 0-3.887 3.162-7.05 7.049-7.05s7.049 3.163 7.049 7.05c0 3.886-3.162 7.048-7.049 7.048zm57.796 27.574c-3.887 0-7.049-3.163-7.049-7.05s3.162-7.049 7.049-7.049c3.886 0 7.047 3.162 7.047 7.049s-3.161 7.05-7.047 7.05z"
       id="path3744" />
  </g>
</svg>
